<svg data-v-29081953="" xmlns="http://www.w3.org/2000/svg" viewBox="0 0 300 300"><defs data-v-29081953=""></defs><rect data-v-29081953="" fill="transparent" x="0" y="0" width="300px" height="300px" class="logo-background-square"></rect><!----><defs data-v-29081953=""><linearGradient data-v-29081953="" gradientTransform="rotate(25)" id="7cd16386-1033-4e4f-80dd-3416caaa75a9" x1="0%" y1="0%" x2="100%" y2="0%"><stop data-v-29081953="" offset="0%" stop-color="#1E0B36" stop-opacity="1"></stop><stop data-v-29081953="" offset="100%" stop-color="#CA3782" stop-opacity="1"></stop></linearGradient></defs><g data-v-29081953="" id="85b6a150-a133-4b1f-99c6-a41331d94119" fill="url(#7cd16386-1033-4e4f-80dd-3416caaa75a9)" stroke="none" transform="matrix(2.2,0,0,2.2,40.00125465393065,39.999999999999986)"><path d="M78.234 70.829c4.957-.221 10.42-1.01 13.063-5.815.989-1.118 6.112-9.188 5.683-10.334 1.96-3.56-15.648.021-17.268.284 4.329-4.84 4-14.004 4.794-20.035 1.271-9.666-.03-10.262 9.365-12.946 9.182-2.623-3.818-6.388-6.796-7.294-3.842-1.169-9.691-12.027-10.888-12.027-2.126 0 2.401 7.644.276 7.644-4.263 0-4.186-9.179-6.931-9.179-1.498 0 .387 4.357.387 4.927C69.921 9.061 63.039 0 63.395 0c-3.79 0 4.212 8.973 5.003 9.425l9.837 5.622-8.305.512c1.664 2.314 3.92 3.509 6.771 3.582-3.271 11.217-5.039 20.939-17.592 24.736-9.294 2.812-20.379 4.5-28.826 9.448-6.469 3.788-4.76 5.754-4.76 11.875 0 8.23-6.51 8.841-10.748 13.818-2.729 3.206-4.366 8.355-6.322 12.1C6.281 95.27 2.05 93.273 3.005 100c10.003-3.292 12.707-14.944 23.182-18.535 5.971-2.047 11.171-4.855 14.293-10.663 3.413-6.345 24.397-6.349 32.584-9.718l.564 2.068c5.629-1.536 11.259-3.071 16.889-4.605-2.76 7.945-10.217 4.647-12.283 12.282"></path></g></svg>